<?xml version="1.0" encoding="UTF-8" standalone="no"?>
<svg width="32px" height="24px" viewBox="0 0 32 24" version="1.1" xmlns="http://www.w3.org/2000/svg" xmlns:xlink="http://www.w3.org/1999/xlink">
    <!-- Generator: Sketch 41 (35326) - http://www.bohemiancoding.com/sketch -->
    <title>ic_translate</title>
    <desc>Created with Sketch.</desc>
    <defs></defs>
    <g id="Page-1" stroke="none" stroke-width="1" fill="none" fill-rule="evenodd">
        <g id="Artboard" transform="translate(-613.000000, -97.000000)" fill="#000000">
            <g id="ic_translate" transform="translate(613.000000, 97.000000)">
                <g id="Combined-Shape">
                    <g id="Organisation-Viewer">
                        <g id="Desktop">
                            <path d="M7.079646,23.079646 L16.97882,23.079646 C18.083771,23.079646 18.973451,22.180457 18.973451,21.071252 L18.973451,11.070341 C18.973451,9.960141 18.080425,9.061947 16.97882,9.061947 L1.994631,9.061947 C0.889681,9.061947 0,9.961136 0,11.070341 L0,21.071252 C0,22.177307 0.886371,23.072936 1.982301,23.079608 L7.079646,23.079646 Z M8.881669,11.752212 L10.224023,11.752212 L13.410351,20.530973 L12.107603,20.530973 L11.191055,17.90151 L7.747034,17.90151 L6.794961,20.530973 L5.575844,20.530973 L8.881669,11.752212 Z M19.964602,14.017699 L24.920354,14.017699 L30.017699,14.017663 C31.113629,14.010989 32,13.11536 32,12.009305 L32,2.008395 C32,0.899189 31.110319,0 30.005369,0 L15.02118,0 C13.919575,0 13.026549,0.898194 13.026549,2.008395 L13.026549,8.070796 L19.964602,8.070796 L19.964602,9.921982 C20.61549,9.517078 21.043708,9.231517 22.058154,8.445178 C21.745335,8.155342 20.237674,6.479676 20.085967,5.572521 L21.299621,5.572521 C21.906448,6.933253 22.816688,7.689216 22.816688,7.689216 C24.333755,6.479676 24.333755,4.816559 24.333755,4.816559 L25.547408,4.816559 C25.547408,4.816559 25.395702,6.782061 23.726928,8.445178 C24.485461,9.20114 25.243995,9.80591 26.609355,10.410679 L26.154235,11.469027 C24.637168,10.864257 23.726928,10.108295 22.816688,9.352332 C22.067999,9.974125 20.49823,10.902779 19.964602,11.212831 L19.964602,14.017699 Z M10.85364,16.933288 L9.502106,13.05496 L8.097539,16.933288 L10.85364,16.933288 Z M18.265487,4.816559 L26.761062,4.816559 L26.761062,3.60702 L23.271808,3.60702 L23.271808,2.548673 L21.906448,2.548673 L21.906448,3.60702 L18.265487,3.60702 L18.265487,4.816559 Z" id="Combined-Shape"></path>
                        </g>
                    </g>
                </g>
            </g>
        </g>
    </g>
</svg>